# AST/ASF file generated using VICON BodyLanguage
# -----------------------------------------------
:version 1.10
:name VICON
:units
  mass 1.0
  length 0.45
  angle deg
:documentation
   .ast/.asf automatically generated from VICON data using
   VICON BodyBuilder and BodyLanguage model FoxedUp or BRILLIANT.MOD
:root
   order TX TY TZ RX RY RZ
   axis XYZ
   position 0 0 0  
   orientation 0 0 0 
:bonedata
  begin
     id 1 
     name lhipjoint
     direction 0.714689 -0.624256 0.315473 
     length 2.45343 
     axis 0 0 0  XYZ
  end
  begin
     id 2 
     name lfemur
     direction 0.34202 -0.939693 0  
     length 6.59069  
     axis 0 0 20  XYZ
    dof rx ry rz
    limits (-160.0 20.0)
           (-70.0 70.0)
           (-60.0 70.0)
  end
  begin
     id 3 
     name ltibia
     direction 0.34202 -0.939693 0   
     length 6.73476   
     axis 0 0 20   XYZ
    dof rx
    limits (-10.0 170.0)
  end
  begin
     id 4 
     name lfoot
     direction 0.0718085 -0.197292 0.977711   
     length 1.52607   
     axis -90 7.62852e-016 20   XYZ
    dof rx rz
    limits (-45.0 90.0)
           (-70.0 20.0)
  end
  begin
     id 5 
     name ltoes
     direction 1.53553e-011 -4.22024e-011 1   
     length 0.777832   
     axis -90 7.62852e-016 20   XYZ
    dof rx
    limits (-90.0 20.0)
  end
  begin
     id 6 
     name rhipjoint
     direction -0.727419 -0.612432 0.309497   
     length 2.50079  
     axis 0 0 0  XYZ 
  end
  begin
     id 7 
     name rfemur
     direction -0.34202 -0.939693 0   
     length 6.51665   
     axis 0 0 -20   XYZ
    dof rx ry rz
    limits (-160.0 20.0)
           (-70.0 70.0)
           (-70.0 60.0)
  end
  begin
     id 8 
     name rtibia
     direction -0.34202 -0.939693 0   
     length 6.48919   
     axis 0 0 -20   XYZ
    dof rx
    limits (-10.0 170.0)
 end
 begin
     id 9 
     name rfoot
     direction -0.112205 -0.308282 0.944655   
     length 1.68717  
     axis -90 -7.62852e-016 -20   XYZ
    dof rx rz
    limits (-45.0 90.0)
           (-20.0 70.0)
  end
  begin
     id 10 
     name rtoes
     direction -1.53583e-011 -4.21993e-011 1   
     length 0.846859   
     axis -90 -7.62852e-016 -20   XYZ
    dof rx
    limits (-90.0 20.0)
  end
  begin
     id 11 
     name lowerback
     direction -0.00119603 0.996364 -0.0851956   
     length 1.67242   
     axis 0 0 0   XYZ
    dof rx ry rz
    limits (-20.0 45.0)
           (-30.0 30.0)
           (-30.0 30.0)
  end
  begin
     id 12 
     name upperback
     direction -0.00531001 0.998318 0.0577248   
     length 1.64819   
     axis 0 0 0   XYZ
    dof rx ry rz
    limits (-20.0 45.0)
           (-30.0 30.0)
           (-30.0 30.0)
  end
  begin
     id 13 
     name thorax
     direction -0.00653676 0.995132 0.0983291   
     length 1.67429   
     axis 0 0 0   XYZ
    dof rx ry rz
    limits (-20.0 45.0)
           (-30.0 30.0)
           (-30.0 30.0)
  end
  begin
     id 14 
     name lowerneck
     direction 0.0141424 0.999886 0.00525412   
     length 1.59623   
     axis 0 0 0   XYZ
    dof rx ry rz
    limits (-20.0 45.0)
           (-30.0 30.0)
           (-30.0 30.0)
  end
  begin
     id 15 
     name upperneck
     direction -0.0640064 0.987178 -0.146232   
     length 1.59576   
     axis 0 0 0   XYZ
    dof rx ry rz
    limits (-20.0 45.0)
           (-30.0 30.0)
           (-30.0 30.0)
  end
  begin
     id 16
     name head
     direction -0.0222942 0.998496 -0.0500859  
     length 1.60959  
     axis 0 0 0   XYZ
    dof rx ry rz
    limits (-20.0 45.0)
           (-30.0 30.0)
           (-30.0 30.0)
  end
  begin
     id 17 
     name lclavicle
     direction 0.908549 0.392612 0.142806  
     length 2.80649  
     axis 0 0 0   XYZ
    dof ry rz
    limits (-20.0 10.0)
           (0.0 20.0)
  end
  begin
     id 18 
     name lhumerus
     direction 1 -4.48968e-011 1.08832e-028   
     length 4.2884   
     axis -180 -30 -90   XYZ
    dof rx ry rz
    limits (-60.0 90.0)
           (-90.0 90.0)
           (-90.0 90.0)
  end
  begin
     id 19
     name lradius
     direction 1 -4.48952e-011 -3.02642e-028   
     length 3.06552   
     axis -180 -30 -90   XYZ
    dof rx
    limits (-10.0 170.0)
  end
  begin
     id 20
     name lwrist
     direction 1 -4.49014e-011 1.58672e-027   
     length 1.53276   
     axis -1.65735e-015 90 90   XYZ
    dof ry
    limits (-180.0 0.0)
 end
  begin
     id 21 
     name lhand
     direction 1 -4.48928e-011 3.17344e-027   
     length 0.753045   
     axis -2.02492e-015 90 90   XYZ
    dof rx rz
    limits (-90.0 90.0)
           (-45.0 45.0)
  end
  begin
     id 22 
     name lfingers
     direction 1 -4.48958e-011 6.34687e-027   
     length 0.607124   
     axis -4.04985e-015 90 90   XYZ
    dof rx
    limits (0.0 90.0)
  end
  begin
     id 23
     name lthumb
     direction 0.707107 -6.34905e-011 0.707107   
     length 0.871712   
     axis -90 45 2.85299e-015   XYZ
    dof rx rz
    limits (-45.0 45.0)
           (-45.0 45.0)
  end
  begin
     id 24 
     name rclavicle
     direction -0.885098 0.45949 0.0739604   
     length 2.9478  
     axis 0 0 0   XYZ 
    dof ry rz
    limits (-10.0 20.0)
           (-20.0 0.0)
  end
  begin
     id 25 
     name rhumerus
     direction -1 -4.4898e-011 -2.61739e-027  
     length 4.52172   
     axis -180 30 90   XYZ
    dof rx ry rz
    limits (-90.0 60.0)
           (-90.0 90.0)
           (-90.0 90.0)
  end
  begin
     id 26 
     name rradius
     direction -1 -4.48945e-011 9.02552e-028   
     length 2.8914   
     axis -180 30 90   XYZ
    dof rx
    limits (-10.0 170.0)
  end
  begin
     id 27 
     name rwrist
     direction -1 -4.49018e-011 1.58672e-027   
     length 1.4457   
     axis -1.65735e-015 -90 -90   XYZ
    dof ry
    limits (-180.0 0.0)
  end
  begin
     id 28
     name rhand
     direction -1 -4.48825e-011 3.17344e-027   
     length 0.680541   
     axis -2.02492e-015 -90 -90   XYZ
    dof rx rz
    limits (-90.0 90.0)
           (-45.0 45.0)
  end
  begin
     id 29
     name rfingers
     direction -1 -4.49067e-011 6.34687e-027   
     length 0.54867   
     axis -4.04985e-015 -90 -90   XYZ
    dof rx
    limits (0.0 90.0)
  end
  begin
     id 30
     name rthumb
     direction -0.707107 -6.34833e-011 0.707107   
     length 0.787783   
     axis -90 -45 -2.85299e-015   XYZ
    dof rx rz
    limits (-45.0 45.0)
           (-45.0 45.0)
  end
:hierarchy
  begin
    root lhipjoint rhipjoint lowerback
    lhipjoint lfemur
    lfemur ltibia
    ltibia lfoot
    lfoot ltoes
    rhipjoint rfemur
    rfemur rtibia
    rtibia rfoot
    rfoot rtoes
    lowerback upperback
    upperback thorax
    thorax lowerneck lclavicle rclavicle
    lowerneck upperneck
    upperneck head
    lclavicle lhumerus
    lhumerus lradius
    lradius lwrist
    lwrist lhand lthumb
    lhand lfingers
    rclavicle rhumerus
    rhumerus rradius
    rradius rwrist
    rwrist rhand rthumb
    rhand rfingers
  end

#!OML:ASF E:\emotionWalksFemale\Project 1\Capture day 1\Session 1\Female1.ASF
:FULLY-SPECIFIED
:DEGREES
172
root 6.60358 15.2029 21.6209 -173.698 -13.8792 -533.322
lowerback 15.2913 1.86797 1.43368
upperback -2.17845 2.83985 0.855458
thorax -10.9706 1.27811 -0.571278
lowerneck -6.12578 -8.48289 -13.5638
upperneck -4.73854 -10.6601 12.2095
head 0.990387 -5.27321 5.46348
rclavicle -1.88845e-014 3.97569e-015
rhumerus -57.0964 35.8888 -108.855
rradius 107.222
rwrist 1.49036
rhand 0.0226869 -63.2655
rfingers 7.12502
rthumb 25.6121 -628.437
lclavicle -1.88845e-014 3.97569e-015
lhumerus -6.48233 -10.0077 58.4539
lradius 36.755
lwrist -23.1659
lhand 26.7109 -34.1561
lfingers 7.12502
lthumb 50.7271 -13.3237
rfemur -18.5008 1.4298 24.5884
rtibia 35.1283
rfoot -27.3596 -38.7736
rtoes 25.4576
lfemur -30.0892 -7.65088 -22.9489
ltibia 36.9661
lfoot -26.9995 -3.92788
ltoes -53.3224
173
root 6.52619 15.2974 21.599 -173.628 -13.3527 -533.859
lowerback 14.9292 1.88594 1.00839
upperback -2.3668 2.76905 0.661366
thorax -10.9806 1.26846 -0.516672
lowerneck -6.00536 -8.57462 -13.9939
upperneck -4.17929 -10.7757 12.5741
head 1.19819 -5.315 5.62203
rclavicle -3.97569e-014 -7.95139e-016
rhumerus -57.7618 36.4868 -110.603
rradius 106.681
rwrist 0.427831
rhand 1.37355 -62.7348
rfingers 7.12502
rthumb 26.9053 -629.16
lclavicle -3.97569e-014 -7.95139e-016
lhumerus -8.50743 -7.43516 59.5855
lradius 34.2225
lwrist -26.097
lhand 29.1712 -32.0285
lfingers 7.12502
lthumb 52.9603 -12.5111
rfemur -17.782 2.02063 23.9685
rtibia 34.0012
rfoot -27.8573 -38.9363
rtoes 26.0862
lfemur -28.5942 -7.04838 -23.3584
ltibia 35.4699
lfoot -26.4641 3.98509
ltoes -52.3503
174
root 6.4519 15.3889 21.5891 -173.458 -12.7438 -534.248
lowerback 14.6361 1.9749 0.659048
upperback -2.45059 2.79633 0.378176
thorax -10.904 1.29701 -0.625111
lowerneck -6.48772 -8.72301 -14.2204
upperneck -3.63516 -10.9378 13.1771
head 1.51047 -5.37488 5.79378
rclavicle 4.91992e-014 -4.33351e-014
rhumerus -57.4353 36.5181 -111.534
rradius 105.987
rwrist -0.345069
rhand 3.42201 -61.9104
rfingers 7.12502
rthumb 28.8637 -449.697
lclavicle 4.91992e-014 -4.33351e-014
lhumerus -9.81258 -3.06355 60.0715
lradius 30.0025
lwrist -34.2637
lhand 21.1233 -36.7551
lfingers 7.12502
lthumb 45.5801 -13.4877
rfemur -17.5202 2.34591 23.5912
rtibia 33.3109
rfoot -27.0958 -38.8743
rtoes 24.3403
lfemur -27.5507 -6.77722 -23.4055
ltibia 34.5453
lfoot -26.2767 8.86311
ltoes -46.1111
175
root 6.38288 15.4798 21.5918 -173.132 -12.2135 -534.375
lowerback 14.3706 2.00567 0.374204
upperback -2.69674 2.77176 0.198292
thorax -11.0283 1.29778 -0.65001
lowerneck -6.7099 -8.79877 -14.3406
upperneck -3.24382 -11.0407 13.7369
head 1.72144 -5.41316 5.95623
rclavicle 3.50855e-014 1.59028e-015
rhumerus -57.3156 36.2661 -112.495
rradius 105.214
rwrist -1.20569
rhand 5.98418 -61.0535
rfingers 7.12502
rthumb 31.3082 -448.396
lclavicle 3.50855e-014 1.59028e-015
lhumerus -11.2907 -0.587239 60.7369
lradius 28.659
lwrist -34.8956
lhand 29.0467 -32.9989
lfingers 7.12502
lthumb 52.8479 -13.4107
rfemur -17.7682 2.41088 23.5512
rtibia 33.091
rfoot -26.114 -38.1269
rtoes 22.1694
lfemur -27.1491 -7.10971 -22.8104
ltibia 34.28
lfoot -25.5757 13.5332
ltoes -44.3804
176
root 6.31794 15.5621 21.6064 -172.801 -11.8651 -534.477
lowerback 14.1832 2.01614 -0.0189381
upperback -2.87061 2.70296 0.0685965
thorax -11.1256 1.28611 -0.550347
lowerneck -6.75706 -8.8094 -14.3932
upperneck -3.33891 -11.0813 14.4922
head 1.7642 -5.43739 6.19327
rclavicle 7.28546e-014 7.95139e-016
rhumerus -56.7883 35.9285 -112.926
rradius 104.208
rwrist -2.29268
rhand 6.20103 -60.4211
rfingers 7.12502
rthumb 31.5149 -447.723
lclavicle 7.28546e-014 7.95139e-016
lhumerus -12.7642 2.11958 61.1647
lradius 26.9488
lwrist -38.5687
lhand 29.9182 -32.3571
lfingers 7.12502
lthumb 53.6334 -13.2742
rfemur -18.1891 1.98672 23.6427
rtibia 33.259
rfoot -24.9744 -36.8094
rtoes 19.5994
lfemur -27.1438 -7.97143 -21.934
ltibia 34.7561
lfoot -25.7844 15.1622
ltoes -40.0575
177
root 6.2534 15.6264 21.6301 -172.5 -11.5967 -534.578
lowerback 13.9729 2.04833 -0.500308
upperback -2.8806 2.64951 -0.0236013
thorax -11.0315 1.29012 -0.358862
lowerneck -6.82718 -8.81398 -14.476
upperneck -3.7755 -11.1124 15.4772
head 1.72888 -5.4696 6.51497
rclavicle -5.34731e-014 1.35174e-014
rhumerus -55.6618 35.5534 -112.677
rradius 102.852
rwrist -3.32165
rhand 8.75513 -60.8034
rfingers 7.12502
rthumb 33.9447 -447.599
lclavicle -5.34731e-014 1.35174e-014
lhumerus -14.0506 4.02559 61.5367
lradius 25.8635
lwrist -41.1021
lhand 29.9561 -32.378
lfingers 7.12502
lthumb 53.6674 -13.3176
rfemur -18.7573 1.22946 23.8179
rtibia 33.7679
rfoot -23.4693 -35.4616
rtoes 15.1377
lfemur -27.4268 -8.87956 -21.0225
ltibia 35.9502
lfoot -25.5283 16.3843
ltoes -38.23
178
root 6.18934 15.6804 21.6511 -172.199 -11.2734 -534.39
lowerback 13.7207 2.11745 -0.835266
upperback -2.88416 2.68521 -0.0129786
thorax -10.9042 1.33069 -0.157261
lowerneck -7.09424 -8.87962 -14.2739
upperneck -4.12297 -11.222 16.1054
head 1.72251 -5.54033 6.66452
rclavicle 1.07344e-014 -1.82882e-014
rhumerus -54.469 35.0732 -112.175
rradius 101.239
rwrist -3.6103
rhand 12.7246 -61.5206
rfingers 7.12502
rthumb 37.7057 -447.399
lclavicle 1.07344e-014 -1.82882e-014
lhumerus -15.3334 5.53168 61.9107
lradius 25.3287
lwrist -42.6531
lhand 29.5201 -32.7401
lfingers 7.12502
lthumb 53.275 -13.4234
rfemur -19.5296 0.400505 24.3137
rtibia 34.6362
rfoot -22.1253 -33.8426
rtoes 10.2975
lfemur -27.898 -9.65612 -19.7826
ltibia 37.681
lfoot -24.9498 16.7923
ltoes -36.4168
179
root 6.13025 15.72 21.6777 -171.881 -11.0552 -533.872
lowerback 13.5953 2.1863 -0.938204
upperback -2.9647 2.77278 0.0987506
thorax -10.9326 1.38396 0.00446228
lowerneck -7.45016 -9.00299 -13.7761
upperneck -4.34632 -11.4177 16.3332
head 1.73313 -5.65198 6.62795
rclavicle 2.83268e-014 -7.15625e-015
rhumerus -53.1874 34.5528 -111.456
rradius 99.3871
rwrist -3.39619
rhand 13.5761 -60.3153
rfingers 7.12502
rthumb 38.5097 -445.974
lclavicle 2.83268e-014 -7.15625e-015
lhumerus -16.6476 6.84568 62.3705
lradius 25.2142
lwrist -43.3472
lhand 29.355 -33.0629
lfingers 7.12502
lthumb 53.1262 -13.6508
rfemur -20.4991 -0.567149 25.2248
rtibia 35.6965
rfoot -21.1514 -31.9124
rtoes 6.31094
lfemur -28.5967 -10.3579 -18.1439
ltibia 39.699
lfoot -23.8664 16.6784
ltoes -34.5565
180
root 6.07538 15.7329 21.7171 -171.692 -11.1258 -533.301
lowerback 13.7869 2.17033 -0.966039
upperback -3.10962 2.76215 0.260318
thorax -11.2183 1.38618 0.186804
lowerneck -7.4568 -9.07702 -13.5392
upperneck -4.60062 -11.5641 16.7924
head 1.70418 -5.74713 6.72433
rclavicle -6.26172e-015 2.22639e-014
rhumerus -51.9193 34.035 -110.825
rradius 97.0578
rwrist -3.20235
rhand 16.7508 -59.6452
rfingers 7.12502
rthumb 41.497 -444.402
lclavicle -6.26172e-015 2.22639e-014
lhumerus -18.1448 7.63965 62.9188
lradius 25.4284
lwrist -42.7043
lhand 29.3059 -33.1162
lfingers 7.12502
lthumb 53.0819 -13.6758
rfemur -21.4941 -1.81765 26.2815
rtibia 36.881
rfoot -20.3919 -30.0502
rtoes 3.16205
lfemur -29.3682 -11.1334 -16.4423
ltibia 41.7063
lfoot -21.9497 16.3891
ltoes -33.4536
181
root 6.05281 15.7369 21.7389 -172.052 -10.0364 -532.618
lowerback 14.2068 2.6134 -1.94809
upperback -3.08991 3.21039 0.627577
thorax -11.5359 1.679 1.01602
lowerneck -7.31111 -9.04682 -13.4685
upperneck -4.7775 -11.5726 17.3212
head 1.66844 -5.77328 6.88665
rclavicle 9.33294e-014 1.11319e-014
rhumerus -50.8381 33.5104 -110.39
rradius 94.3839
rwrist -2.83698
rhand 28.1917 -64.5173
rfingers 7.12502
rthumb 52.0741 -444.579
lclavicle 9.33294e-014 1.11319e-014
lhumerus -19.7244 8.18542 63.5694
lradius 25.7213
lwrist -41.0408
lhand 28.8598 -32.7943
lfingers 7.12502
lthumb 52.679 -13.1008
rfemur -21.8588 -1.92402 27.4236
rtibia 38.13
rfoot -19.917 -28.3319
rtoes 1.2155
lfemur -29.013 -11.0047 -14.7726
ltibia 43.3038
lfoot -20.0407 16.0465
ltoes -32.2097
182
root 6.02642 15.7191 21.7645 -172.741 -8.96723 -532.001
lowerback 15.0155 3.04908 -2.86649
upperback -3.01779 3.64044 0.988731
thorax -12.0432 1.95997 1.78754
lowerneck -7.10151 -8.95784 -13.3915
upperneck -4.8699 -11.4987 17.6707
head 1.61994 -5.75516 7.00119
rclavicle -7.7526e-015 -1.19271e-014
rhumerus -49.7876 33.1904 -110.053
rradius 91.4886
rwrist -2.39325
rhand 13.8939 -58.0386
rfingers 7.12502
rthumb 38.8095 -443.613
lclavicle -7.7526e-015 -1.19271e-014
lhumerus -21.2812 8.71331 64.2118
lradius 25.9065
lwrist -39.2606
lhand 27.8476 -32.4875
lfingers 7.12502
lthumb 51.7618 -12.2414
rfemur -21.8842 -2.1644 28.4819
rtibia 39.4069
rfoot -19.4594 -26.6965
rtoes -1.82614
lfemur -27.9485 -11.1962 -13.2346
ltibia 44.1417
lfoot -18.3971 15.75
ltoes -30.3212
183
root 5.97793 15.6871 21.7941 -173.145 -9.46264 -531.621
lowerback 15.6805 2.90968 -3.02041
upperback -3.07544 3.42752 1.20256
thorax -12.5164 1.88246 2.13757
lowerneck -6.78543 -8.90653 -13.3348
upperneck -4.97647 -11.4696 17.8805
head 1.54675 -5.76034 7.07645
rclavicle 1.64991e-014 2.94201e-014
rhumerus -48.5976 33.0073 -109.761
rradius 88.1084
rwrist -2.08172
rhand 26.7432 -63.0082
rfingers 7.12502
rthumb 50.7566 -443.824
lclavicle 1.64991e-014 2.94201e-014
lhumerus -22.866 8.9789 64.8712
lradius 26.1329
lwrist -37.8623
lhand 26.358 -32.6456
lfingers 7.12502
lthumb 50.405 -11.6381
rfemur -22.2274 -3.8437 29.4163
rtibia 40.6165
rfoot -19.2178 -25.2682
rtoes -5.7372
lfemur -27.3364 -12.8188 -11.7419
ltibia 44.0952
lfoot -16.7976 15.4385
ltoes -30.3646
184
root 5.92841 15.6579 21.8152 -173.695 -9.87358 -531.373
lowerback 16.3381 2.82777 -3.33485
upperback -3.04278 3.25503 1.40555
thorax -12.893 1.83566 2.56502
lowerneck -6.69402 -8.92587 -13.1171
upperneck -4.89806 -11.5255 17.8047
head 1.54464 -5.79209 7.01466
rclavicle 2.5842e-015 -2.94201e-014
rhumerus -47.2736 32.769 -109.351
rradius 84.3747
rwrist -1.30614
rhand 10.1798 -57.0521
rfingers 7.12502
rthumb 35.2968 -443.538
lclavicle 2.5842e-015 -2.94201e-014
lhumerus -24.4406 8.59538 65.7943
lradius 26.5865
lwrist -36.5725
lhand 24.5467 -33.0083
lfingers 7.12502
lthumb 48.7447 -11.1505
rfemur -22.3445 -5.43402 30.1596
rtibia 41.7388
rfoot -19.2428 -23.8807
rtoes -8.04403
lfemur -26.2325 -14.5539 -10.5121
ltibia 43.2749
lfoot -17.2414 15.7707
ltoes -43.0013
185
root 5.87545 15.6189 21.8397 -174.055 -10.4856 -531.089
lowerback 16.8228 2.59674 -3.49052
upperback -3.0694 2.92206 1.63327
thorax -13.2098 1.70649 2.98725
lowerneck -6.88655 -8.96545 -12.7372
upperneck -4.53424 -11.6018 17.4462
head 1.64263 -5.8125 6.81791
rclavicle 6.14245e-014 4.45278e-014
rhumerus -46.147 32.5387 -108.935
rradius 80.6791
rwrist 0.198154
rhand 9.33612 -57.1521
rfingers 7.12502
rthumb 34.4964 -443.824
lclavicle 6.14245e-014 4.45278e-014
lhumerus -25.9661 8.28094 66.8516
lradius 27.0745
lwrist -35.9661
lhand 23.3351 -33.0047
lfingers 7.12502
lthumb 47.6283 -10.6203
rfemur -22.684 -7.08955 30.9417
rtibia 42.7767
rfoot -19.3597 -22.6272
rtoes -9.33703
lfemur -25.3947 -16.4494 -9.31222
ltibia 41.9399
lfoot -17.7543 15.1585
ltoes -51.4971
186
root 5.82389 15.5553 21.8673 -174.451 -11.0942 -530.608
lowerback 17.3365 2.35372 -3.35943
upperback -3.10239 2.63379 1.86436
thorax -13.5355 1.5771 3.24385
lowerneck -6.99952 -9.00357 -12.4111
upperneck -4.31948 -11.6784 17.2183
head 1.69767 -5.84315 6.67804
rclavicle 9.93923e-016 -3.18055e-014
rhumerus -44.9876 32.1731 -108.418
rradius 76.9357
rwrist 1.86712
rhand 8.58395 -56.6931
rfingers 7.12502
rthumb 33.7821 -443.525
lclavicle 9.93923e-016 -3.18055e-014
lhumerus -27.258 8.36406 67.8618
lradius 27.3811
lwrist -36.873
lhand 22.4554 -32.857
lfingers 7.12502
lthumb 46.8152 -10.1098
rfemur -22.9719 -8.69013 31.9309
rtibia 43.6557
rfoot -19.476 -21.5059
rtoes -10.8054
lfemur -24.5712 -17.9379 -8.22444
ltibia 40.4089
lfoot -20.3377 13.0181
ltoes -52.6014
